HIERARCHY
ROOT Hips
{
 OFFSET 0.000000 0.000000 0.000000
 CHANNELS 6 Xposition Yposition Zposition Yrotation Xrotation Zrotation
 JOINT Chest
 {
  OFFSET 0.000000 9.585900 0.002600
  CHANNELS 3 Yrotation Xrotation Zrotation
  JOINT Chest2
  {
   OFFSET 0.000000 9.601200 -0.005300
   CHANNELS 3 Yrotation Xrotation Zrotation
   JOINT Chest3
   {
    OFFSET 0.000000 9.561800 0.000000
    CHANNELS 3 Yrotation Xrotation Zrotation
    JOINT Chest4
    {
     OFFSET 0.000000 9.552100 0.000000
     CHANNELS 3 Yrotation Xrotation Zrotation
     JOINT Neck
     {
      OFFSET 0.000000 14.453000 0.000000
      CHANNELS 3 Yrotation Xrotation Zrotation
      JOINT Head
      {
       OFFSET 0.000000 8.936500 -0.011300
       CHANNELS 3 Yrotation Xrotation Zrotation
       End Site
       {
        OFFSET 0.000000 17.073600 -0.006000
       }
      }
     }
     JOINT RightCollar
     {
      OFFSET -2.921100 9.558500 0.000000
      CHANNELS 3 Yrotation Xrotation Zrotation
      JOINT RightShoulder
      {
       OFFSET -13.519700 0.000000 0.000000
       CHANNELS 3 Yrotation Xrotation Zrotation
       JOINT RightElbow
       {
        OFFSET 0.000000 -29.696600 0.000000
        CHANNELS 3 Yrotation Xrotation Zrotation
        JOINT RightWrist
        {
         OFFSET 0.000000 -24.004700 0.000000
         CHANNELS 3 Yrotation Xrotation Zrotation
         End Site
         {
          OFFSET 0.000000 -17.728500 0.000000
         }
        }
       }
      }
     }
     JOINT LeftCollar
     {
      OFFSET 2.921100 9.558500 0.000000
      CHANNELS 3 Yrotation Xrotation Zrotation
      JOINT LeftShoulder
      {
       OFFSET 13.519700 0.000000 0.000000
       CHANNELS 3 Yrotation Xrotation Zrotation
       JOINT LeftElbow
       {
        OFFSET 0.000000 -29.696600 0.000000
        CHANNELS 3 Yrotation Xrotation Zrotation
        JOINT LeftWrist
        {
         OFFSET 0.000000 -24.004700 0.000000
         CHANNELS 3 Yrotation Xrotation Zrotation
         End Site
         {
          OFFSET 0.000000 -17.728500 0.000000
         }
        }
       }
      }
     }
    }
   }
  }
 }
 JOINT RightHip
 {
  OFFSET -7.771700 -0.012900 -0.001300
  CHANNELS 3 Yrotation Xrotation Zrotation
  JOINT RightKnee
  {
   OFFSET 0.000000 -40.869800 0.001200
   CHANNELS 3 Yrotation Xrotation Zrotation
   JOINT RightAnkle
   {
    OFFSET 0.000000 -39.717900 0.002100
    CHANNELS 3 Yrotation Xrotation Zrotation
    JOINT RightToe
    {
     OFFSET 0.000000 -4.965400 11.033500
     CHANNELS 3 Yrotation Xrotation Zrotation
     End Site
     {
      OFFSET 0.000000 -1.423100 5.872300
     }
    }
   }
  }
 }
 JOINT LeftHip
 {
  OFFSET 7.771700 -0.012900 -0.001300
  CHANNELS 3 Yrotation Xrotation Zrotation
  JOINT LeftKnee
  {
   OFFSET 0.000000 -40.869800 0.001200
   CHANNELS 3 Yrotation Xrotation Zrotation
   JOINT LeftAnkle
   {
    OFFSET 0.000000 -39.717900 0.002100
    CHANNELS 3 Yrotation Xrotation Zrotation
    JOINT LeftToe
    {
     OFFSET 0.000000 -4.965400 11.033500
     CHANNELS 3 Yrotation Xrotation Zrotation
     End Site
     {
      OFFSET 0.000000 -1.423100 5.872300
     }
    }
   }
  }
 }
}
MOTION
Frames: 8
Frame Time: 0.008333
-19.462276 57.961840 72.129035 171.924935 -30.141528 -3.393984 5.052409 18.372576 4.869174 0.498252 2.230468 0.312648 0.827333 3.667434 0.531464 3.986184 16.110548 2.772167 0.803329 12.631445 -1.620933 2.191620 -12.277858 -3.425542 1.930037 -4.480704 -0.881997 3.748618 -11.174388 -16.602733 161.653800 -87.595136 -129.314973 14.913470 -7.186037 -33.065293 -3.990775 -2.300059 -0.073065 27.970202 -7.928870 7.088930 -116.937444 -39.469813 119.148688 -28.536842 15.720357 -21.268906 11.209883 -41.859817 -0.916614 -5.533069 65.839473 -4.673058 4.709206 10.271963 8.162580 -0.056167 0.136851 -0.020409 -3.539656 -48.272434 6.293477 27.000885 59.900698 27.141003 -8.142696 41.929813 4.929131 0.453662 -22.413175 -6.557011
-19.463606 57.960614 72.127611 171.925280 -30.148103 -3.383652 5.046248 18.375262 4.861809 0.497885 2.229596 0.313081 0.831904 3.669909 0.531887 3.979293 16.103712 2.775342 0.806190 12.621852 -1.633619 2.188090 -12.281518 -3.431547 1.945261 -4.489078 -0.890524 3.744797 -11.166165 -16.588628 161.948663 -87.586705 -129.599384 14.906624 -7.216491 -33.059204 -3.987784 -2.283730 -0.072565 28.002144 -7.875680 7.062296 -117.154468 -39.465641 119.363418 -28.585679 15.714916 -21.329048 11.219751 -41.854223 -0.925547 -5.532310 65.845415 -4.679645 4.707082 10.269925 8.168312 -0.057647 0.134772 -0.021006 -3.532392 -48.266043 6.281366 26.999718 59.908981 27.133742 -8.129854 41.913547 4.951080 0.450256 -22.404854 -6.569687
-19.464918 57.958940 72.127044 171.931768 -30.145836 -3.380052 5.046037 18.366160 4.865302 0.494895 2.233490 0.311594 0.827544 3.672433 0.527075 3.986373 16.100652 2.782901 0.796684 12.606692 -1.646376 2.186735 -12.287969 -3.435103 1.941143 -4.495066 -0.898169 3.765070 -11.192181 -16.562915 162.428555 -87.582334 -130.070105 14.917480 -7.170136 -33.056834 -3.998668 -2.262065 -0.059612 28.055275 -7.816109 7.017304 -117.407660 -39.454222 119.630128 -28.677788 15.730754 -21.431045 11.220369 -41.856506 -0.932748 -5.513536 65.850152 -4.667067 4.696999 10.266377 8.170157 -0.057408 0.135424 -0.020339 -3.537261 -48.269362 6.275861 27.005062 59.912680 27.135471 -8.135242 41.907211 4.954144 0.448205 -22.402781 -6.573572
-19.466370 57.957990 72.125399 171.931154 -30.148769 -3.374181 5.045944 18.368012 4.861057 0.498022 2.230217 0.312164 0.827960 3.672317 0.527069 3.983187 16.097781 2.781899 0.791075 12.596843 -1.651240 2.183064 -12.358629 -3.464771 1.942975 -4.497277 -0.898604 3.768686 -11.191745 -16.554858 162.869220 -87.576671 -130.497006 14.926456 -7.143231 -33.063658 -4.000985 -2.234741 -0.040864 28.127711 -7.744071 6.967781 -117.707696 -39.434690 119.954503 -28.719949 15.711941 -21.487200 11.223770 -41.853728 -0.934168 -5.514244 65.853938 -4.676014 4.693867 10.262062 8.174200 -0.056724 0.136478 -0.019915 -3.545736 -48.261569 6.275935 27.025098 59.918750 27.147061 -8.145008 41.857828 4.964753 0.451577 -22.365970 -6.590388
-19.468454 57.957652 72.122932 171.925398 -30.154953 -3.364424 5.049235 18.373890 4.855599 0.497678 2.229163 0.313086 0.824381 3.671269 0.526538 3.981202 16.098938 2.779977 0.788061 12.581681 -1.656598 2.188793 -12.363249 -3.469697 1.949593 -4.499918 -0.900250 3.775857 -11.195948 -16.547493 163.100412 -87.575951 -130.717907 14.930331 -7.141247 -33.062018 -3.988216 -2.181302 -0.007195 28.216802 -7.680447 6.879910 -118.059592 -39.407928 120.337257 -28.765884 15.701464 -21.544433 11.237821 -41.847646 -0.940961 -5.522938 65.857791 -4.688048 4.692517 10.258478 8.176815 -0.055634 0.136106 -0.019197 -3.535061 -48.254309 6.266088 27.027503 59.928486 27.144766 -8.127114 41.830098 4.984341 0.435095 -22.348976 -6.593657
-19.471066 57.958067 72.119581 171.916751 -30.165337 -3.352355 5.046095 18.383310 4.847793 0.500985 2.230526 0.310900 0.826498 3.671219 0.526452 3.981809 16.099057 2.779692 0.779458 12.564903 -1.659690 2.198219 -12.367113 -3.477059 1.952930 -4.503429 -0.901216 3.796125 -11.206704 -16.532333 162.682217 -87.586661 -130.310030 14.924997 -7.154142 -33.045048 -3.982646 -2.166427 0.001334 28.322483 -7.584278 6.822285 -118.459477 -39.380294 120.777910 -28.829895 15.705881 -21.617995 11.250584 -41.836515 -0.945790 -5.532507 65.861330 -4.704086 4.695715 10.253124 8.181883 -0.056818 0.135471 -0.020193 -3.519169 -48.242718 6.253102 27.024746 59.942866 27.136303 -8.092306 41.794949 5.016216 0.415052 -22.328496 -6.600445
-19.476223 57.957400 72.118187 171.924294 -30.157720 -3.337677 5.026281 18.377165 4.829544 0.501712 2.227865 0.308615 0.824692 3.670588 0.526135 3.974464 16.099000 2.778326 0.780554 12.553501 -1.665059 2.201280 -12.392137 -3.492349 1.965608 -4.508083 -0.904883 3.840223 -11.221863 -16.510554 162.182846 -87.602199 -129.823788 14.919448 -7.150433 -33.032039 -3.957724 -2.120809 0.021922 28.439544 -7.489909 6.729200 -118.904793 -39.364232 121.277644 -28.878746 15.708087 -21.670580 11.259327 -41.841882 -0.969535 -5.555689 65.867019 -4.734772 4.703705 10.247691 8.190563 -0.056733 0.135009 -0.021911 -3.508362 -48.242829 6.222910 27.023676 59.941141 27.131548 -8.091325 41.755805 5.035407 0.421977 -22.294239 -6.620369
-19.482963 57.957944 72.115004 171.919375 -30.160703 -3.308017 5.018530 18.383395 4.802559 0.497458 2.226818 0.311161 0.823007 3.669767 0.525870 3.951954 16.095626 2.776258 0.796768 12.543526 -1.679213 2.207262 -12.456352 -3.522135 1.997399 -4.509383 -0.917869 3.860792 -11.226936 -16.495531 162.206158 -87.604947 -129.842505 14.909533 -7.172910 -33.004350 -3.918965 -2.081727 0.031294 28.569667 -7.379460 6.636747 -119.391938 -39.370364 121.832989 -28.901782 15.709021 -21.689070 11.281470 -41.835999 -1.003738 -5.549437 65.875991 -4.737207 4.701821 10.238355 8.197069 -0.053848 0.137407 -0.024211 -3.477483 -48.229198 6.177715 27.015083 59.935449 27.119082 -8.077127 41.728095 5.046257 0.419729 -22.270655 -6.626295
